<svg xmlns="http://www.w3.org/2000/svg" xmlns:xlink="http://www.w3.org/1999/xlink" version="1.1" id="Layer_1" x="0" y="0" viewBox="74 -4.67 338.33 75.67" xml:space="preserve" enable-background="new 74 -4.666 338.334 75.666">
  <style type="text/css">
    
	.st0{fill:#E64812;}
	.st1{fill:#404040;}
	.st2{display:none;}
	.st3{display:inline;}
	.st4{display:inline;fill:#E44A25;}
	.st5{display:inline;fill:#636466;}

  </style>
  <path d="M115.43 32.03c0-6.94 5.06-10.41 15.17-10.41 2.37 0 4.7 0.2 7.1 0.67v-2.63c0-3.13-2.25-4.69-6.75-4.69 -3.81 0-8.05 0.56-12.71 1.66V9.64c4.66-1.11 8.9-1.66 12.71-1.66 10.38 0 15.6 3.8 15.6 11.51v23.42h-5.12l-3.13-3.13c-3.04 2.09-6.38 3.13-10.05 3.13 -8.55 0.03-12.85-3.67-12.85-10.88H115.43zM130.6 27.63c-4.24 0-6.35 1.44-6.35 4.33 0 3.1 1.8 4.7 5.3 4.66 2.93 0 5.65-0.91 8.15-2.73v-5.59c-2.19-0.47-4.59-0.67-7.09-0.7V27.63z"></path>
  <path d="M152.65 2.32h8.97l0.02 5.66h7.64v6.98h-7.82v16.07c0 3.3 1.4 4.9 4.2 4.89h3.59v6.98h-7.85c-5.85 0-8.78-3.14-8.78-9.41V2.32H152.65z"></path>
  <path d="M171.9 32.03c0-6.94 5.05-10.41 15.17-10.41 2.38 0 4.7 0.2 7.1 0.67v-2.63c0-3.13-2.25-4.69-6.75-4.69 -3.82 0-8.05 0.56-12.71 1.66V9.64c4.66-1.11 8.89-1.66 12.71-1.66 10.38 0 15.6 3.8 15.6 11.51v23.42h-5.12l-3.13-3.13c-3.04 2.09-6.39 3.13-10.05 3.1 -8.55 0.06-12.82-3.64-12.82-10.85H171.9zM187.07 27.6c-4.24 0-6.35 1.44-6.35 4.33 0 3.1 1.8 4.7 5.3 4.7 2.93 0 5.64-0.91 8.15-2.73v-5.59c-2.19-0.48-4.57-0.68-7.06-0.71H187.07z"></path>
  <path class="st0" d="M214.76 42.9h-9.05l20.19-47.57h9.48l20.63 47.57h-9.48l-5.42-12.97h-15.8l3.03-7.65h9.58l-7.48-17.86L214.76 42.9z"></path>
  <path class="st0" d="M282.43 41.9c-2.88 0.67-5.87 1-8.98 1 -12.42 0-18.63-6.04-18.63-18.13 0-11.2 6.21-16.8 18.63-16.8 3.11 0 6.1 0.3 9 1v6.98c-2.88-0.66-5.65-1-8.31-1 -6.99 0-10.48 3.27-10.48 9.81 0 7.4 3.5 11.1 10.5 11.14 2.66 0 5.43-0.33 8.31-1v6.99H282.43z"></path>
  <path class="st0" d="M312.33 41.9c-2.88 0.67-5.88 1-8.98 1 -12.42 0-18.63-6.04-18.63-18.13 0-11.2 6.21-16.8 18.63-16.8 3.1 0 6.1 0.3 9 1v6.98c-2.88-0.66-5.65-1-8.32-1 -6.98 0-10.48 3.27-10.48 9.81 0 7.4 3.5 11.1 10.5 11.14 2.66 0 5.44-0.33 8.32-1v6.99H312.33z"></path>
  <path class="st0" d="M331.18 7.98c10.6 0 15.9 5.4 15.9 16.23 0 1.44-0.1 2.88-0.3 4.33H323.6c0 4.9 3.6 7.4 10.8 7.39 3.53 0 7.05-0.33 10.58-1v6.99c-3.08 0.67-6.83 1-11.24 1 -12.66 0-18.99-5.95-18.99-17.86C314.79 13.63 320.2 7.93 331.2 7.98H331.18zM323.6 22.41h14.9v-0.27c0-4.83-2.44-7.25-7.32-7.25C326.53 14.93 324 17.43 323.6 22.41z"></path>
  <path class="st0" d="M352 41.24v-7.32c3.88 1.6 8.4 2.3 13.4 2.33 3.79 0 5.69-1.22 5.69-3.66 0-2.33-1.27-3.49-3.83-3.49h-6.32c-7.1 0-10.64-3.49-10.64-10.48 0-7.32 5.18-10.98 15.53-10.98 4.39 0 8.5 0.7 12.4 2v7.32c-3.88-1.55-8.09-2.33-12.64-2.33 -4.77 0-7.15 1.22-7.15 3.7 0 2.3 1.4 3.5 4.2 3.5h5.65c7.76 0 11.6 3.5 11.6 10.48 0 7.32-4.94 10.98-14.84 11C360.25 43.23 355.9 42.53 352 41.24z"></path>
  <path class="st0" d="M384.39 41.24v-7.32c3.88 1.6 8.4 2.3 13.4 2.33 3.79 0 5.69-1.22 5.69-3.66 0-2.33-1.27-3.49-3.82-3.49h-6.32c-7.1 0-10.64-3.49-10.64-10.48 0-7.32 5.18-10.98 15.54-10.98 4.39 0 8.5 0.7 12.4 2v7.32c-3.88-1.55-8.1-2.33-12.64-2.33 -4.77 0-7.15 1.22-7.15 3.7 0 2.3 1.4 3.5 4.2 3.5h5.66c7.76 0 11.6 3.5 11.6 10.48 0 7.32-4.94 10.98-14.84 11 -4.81-0.07-9.15-0.77-13.05-2.06H384.39z"></path>
  <path d="M87.49 35.27H74v7.64h14.53c15.75 0 23.62-8.36 23.62-25.08 0-14.99-7.85-22.49-23.65-22.49H74v35.17h8.81V2.99h5.71c9.87 0 14.8 4.9 14.8 14.83 0 11.62-4.94 17.43-14.8 17.43L87.49 35.27z"></path>
  <path class="st1" d="M253.21 54.56h2.24l2.52 14.2 5.06-14.2h2.32l5.42 14.2 2.84-14.2h2.14l-3.37 16.32h-3.16l-5.06-13.67 -4.9 13.67h-3.12L253.21 54.56z"></path>
  <path class="st1" d="M277.88 62.75c0-5.53 3-8.3 8.99-8.3 5.9 0 8.9 2.8 8.9 8.3 0 5.5-2.95 8.25-8.85 8.25 -6.04 0.03-9.02-2.77-9.02-8.25H277.88zM286.88 69.29c4.27 0 6.41-2.2 6.41-6.61 0-4.34-2.14-6.52-6.41-6.52 -4.37 0-6.55 2.17-6.55 6.52 0 4.45 2.17 6.65 6.57 6.61H286.88z"></path>
  <path class="st1" d="M299.36 70.89V54.56h7.64c3.41 0 5.1 1.3 5.1 3.92 0 2.12-1.67 3.69-5 4.71l6.15 7.7h-3.06l-5.7-7.34v-1.38c3.42-0.49 5.14-1.69 5.14-3.6 0-1.51-0.95-2.26-2.85-2.26h-5.11v14.58h-2.31V70.89z"></path>
  <path class="st1" d="M318.03 54.56v14.61h9.37v1.71H315.71V54.56H318.03z"></path>
  <path class="st1" d="M330.15 70.89V54.56h6.51c5.93 0 8.9 2.6 8.9 7.72 0 5.74-2.96 8.61-8.89 8.61L330.15 70.89 330.15 70.89zM336.66 69.17c4.39 0 6.58-2.3 6.58-6.89 0-4-2.19-6-6.58-6h-4.19v12.9H336.66z"></path>
  <path class="st1" d="M347.44 54.56h2.24l2.52 14.2 5.06-14.2h2.32l5.42 14.2 2.84-14.2h2.14l-3.37 16.3h-3.16l-5.06-13.67 -4.9 13.67h-3.12L347.44 54.56z"></path>
  <path class="st1" d="M375.43 54.56v16.32h-2.32V54.56H375.43z"></path>
  <path class="st1" d="M380.06 70.89V54.56h6.51c5.93 0 8.9 2.6 8.9 7.72 0 5.74-2.96 8.61-8.89 8.61L380.06 70.89 380.06 70.89zM386.58 69.17c4.38 0 6.58-2.3 6.58-6.89 0-4-2.19-6-6.57-6h-4.2v12.9H386.58z"></path>
  <path class="st1" d="M410.56 54.56v1.71h-9.39v5.48h8.96v1.71h-8.96v5.71h9.58v1.71h-11.9V54.56H410.56z"></path>
  <g class="st2">
    <path class="st3" d="M130.6 27.6c-4.24 0-6.36 1.44-6.36 4.33 0 3.1 1.78 4.66 5.32 4.66 2.93 0 5.65-0.91 8.15-2.73v-5.59C135.5 27.82 133.13 27.6 130.6 27.6L130.6 27.6zM115.43 32.03c0-6.94 5.06-10.41 15.17-10.41 2.37 0 4.75 0.23 7.12 0.66V19.65c0-3.13-2.25-4.69-6.75-4.69 -3.81 0-8.05 0.56-12.71 1.66V9.64c4.66-1.11 8.9-1.66 12.71-1.66 10.38 0 15.57 3.84 15.57 11.51v23.42h-5.12l-3.13-3.13c-3.04 2.09-6.38 3.13-10.05 3.13C119.7 42.9 115.43 39.28 115.43 32.03L115.43 32.03z"></path>
    <path class="st3" d="M152.65 2.32h8.97l0.02 5.66h7.64v6.98h-7.82v16.07c0 3.26 1.41 4.89 4.23 4.89h3.59v6.98h-7.85c-5.86 0-8.78-3.14-8.78-9.41V2.32L152.65 2.32z"></path>
    <path class="st3" d="M187.07 27.6c-4.24 0-6.35 1.44-6.35 4.33 0 3.1 1.77 4.66 5.32 4.66 2.93 0 5.64-0.91 8.15-2.73v-5.59C191.97 27.82 189.6 27.6 187.07 27.6L187.07 27.6zM171.9 32.03c0-6.94 5.05-10.41 15.17-10.41 2.38 0 4.75 0.23 7.12 0.66V19.65c0-3.13-2.25-4.69-6.75-4.69 -3.82 0-8.05 0.56-12.71 1.66V9.64c4.66-1.11 8.89-1.66 12.71-1.66 10.38 0 15.57 3.84 15.57 11.51v23.42h-5.12l-3.13-3.13c-3.04 2.09-6.39 3.13-10.05 3.13C176.17 42.9 171.9 39.28 171.9 32.03L171.9 32.03z"></path>
    <polygon class="st4" points="214.76 42.9 205.72 42.9 225.91 -4.67 235.39 -4.67 256.01 42.9 246.53 42.9 241.11 29.93 225.31 29.93 228.33 22.28 237.91 22.28 230.43 4.42 214.76 42.9 "></polygon>
    <path class="st4" d="M282.43 41.9c-2.88 0.67-5.87 1-8.98 1 -12.42 0-18.63-6.04-18.63-18.13 0-11.2 6.21-16.8 18.63-16.8 3.11 0 6.1 0.33 8.98 1v6.98c-2.88-0.66-5.65-1-8.31-1 -6.99 0-10.48 3.27-10.48 9.81 0 7.43 3.49 11.14 10.48 11.14 2.66 0 5.43-0.33 8.31-1V41.9L282.43 41.9z"></path>
    <path class="st4" d="M312.33 41.9c-2.88 0.67-5.88 1-8.98 1 -12.42 0-18.63-6.04-18.63-18.13 0-11.2 6.21-16.8 18.63-16.8 3.1 0 6.1 0.33 8.98 1v6.98c-2.88-0.66-5.65-1-8.32-1 -6.98 0-10.48 3.27-10.48 9.81 0 7.43 3.49 11.14 10.48 11.14 2.66 0 5.44-0.33 8.32-1V41.9L312.33 41.9z"></path>
    <path class="st4" d="M323.6 22.41h14.9v-0.27c0-4.83-2.44-7.25-7.32-7.25C326.53 14.89 324 17.4 323.6 22.41L323.6 22.41zM331.18 7.98c10.6 0 15.9 5.41 15.9 16.23 0 1.44-0.1 2.88-0.3 4.33H323.6c0 4.92 3.61 7.39 10.84 7.39 3.53 0 7.05-0.33 10.58-1v6.99c-3.08 0.67-6.83 1-11.24 1 -12.66 0-18.99-5.95-18.99-17.86C314.79 13.66 320.25 7.98 331.18 7.98L331.18 7.98z"></path>
    <path class="st4" d="M352 41.24v-7.32c3.88 1.55 8.36 2.33 13.44 2.33 3.79 0 5.69-1.22 5.69-3.66 0-2.33-1.27-3.49-3.83-3.49h-6.32c-7.1 0-10.64-3.49-10.64-10.48 0-7.32 5.18-10.98 15.53-10.98 4.39 0 8.53 0.67 12.41 2v7.32c-3.88-1.55-8.09-2.33-12.64-2.33 -4.77 0-7.15 1.22-7.15 3.66 0 2.33 1.39 3.5 4.16 3.5h5.65c7.76 0 11.64 3.49 11.64 10.48 0 7.32-4.94 10.98-14.84 10.98C360.25 43.23 355.88 42.57 352 41.24L352 41.24z"></path>
    <path class="st4" d="M384.39 41.24v-7.32c3.88 1.55 8.36 2.33 13.44 2.33 3.79 0 5.69-1.22 5.69-3.66 0-2.33-1.28-3.49-3.82-3.49h-6.32c-7.1 0-10.64-3.49-10.64-10.48 0-7.32 5.18-10.98 15.54-10.98 4.39 0 8.53 0.67 12.41 2v7.32c-3.88-1.55-8.1-2.33-12.64-2.33 -4.77 0-7.15 1.22-7.15 3.66 0 2.33 1.39 3.5 4.16 3.5h5.66c7.76 0 11.64 3.49 11.64 10.48 0 7.32-4.94 10.98-14.84 10.98C392.64 43.23 388.27 42.57 384.39 41.24L384.39 41.24z"></path>
    <path class="st3" d="M87.49 35.27H74v7.64h14.53c15.75 0 23.62-8.36 23.62-25.08 0-14.99-7.87-22.49-23.62-22.49H74v35.17h8.81V2.99h5.71c9.87 0 14.81 4.94 14.81 14.83 0 11.62-4.94 17.43-14.8 17.43L87.49 35.27 87.49 35.27z"></path>
    <polygon class="st5" points="323.22 54.57 323.22 56.28 313.83 56.28 313.83 61.76 322.79 61.76 322.79 63.47 313.83 63.47 313.83 69.17 323.41 69.17 323.41 70.89 311.51 70.89 311.51 54.57 323.22 54.57 "></polygon>
    <path class="st5" d="M326.79 64.59V54.57h2.32v10.02c0 3.14 1.71 4.7 5.14 4.7 3.42 0 5.14-1.57 5.14-4.7V54.57h2.32v10.02c0 4.28-2.48 6.41-7.45 6.41C329.28 71 326.79 68.86 326.79 64.59L326.79 64.59z"></path>
    <path class="st5" d="M345.83 70.89V54.57h7.64c3.41 0 5.11 1.31 5.11 3.92 0 2.12-1.67 3.69-5 4.71l6.15 7.69h-3.05l-5.7-7.34v-1.38c3.42-0.49 5.14-1.69 5.14-3.6 0-1.51-0.95-2.26-2.85-2.26h-5.11v14.58H345.83L345.83 70.89z"></path>
    <path class="st5" d="M370.54 69.29c4.27 0 6.41-2.2 6.41-6.61 0-4.34-2.14-6.52-6.41-6.52 -4.37 0-6.55 2.17-6.55 6.52C363.99 67.09 366.18 69.29 370.54 69.29L370.54 69.29zM361.55 62.75c0-5.53 3-8.3 8.99-8.3 5.9 0 8.85 2.77 8.85 8.3 0 5.5-2.95 8.25-8.85 8.25C364.55 71 361.55 68.25 361.55 62.75L361.55 62.75z"></path>
    <path class="st5" d="M383.03 70.89V54.57h7.27c3.66 0 5.49 1.46 5.49 4.37 0 3.17-2.5 5.11-7.5 5.81l-0.47-1.78c3.67-0.49 5.51-1.81 5.51-3.94 0-1.81-1.08-2.72-3.23-2.72h-4.73v14.58H383.03L383.03 70.89z"></path>
    <polygon class="st5" points="410.56 54.57 410.56 56.28 401.17 56.28 401.17 61.76 410.12 61.76 410.12 63.47 401.17 63.47 401.17 69.17 410.75 69.17 410.75 70.89 398.85 70.89 398.85 54.57 410.56 54.57 "></polygon>
  </g>
</svg>