<?xml version="1.0" encoding="utf-8"?>
<!-- Generator: Adobe Illustrator 19.1.0, SVG Export Plug-In . SVG Version: 6.00 Build 0)  -->
<svg version="1.1" id="Layer_1" xmlns="http://www.w3.org/2000/svg" xmlns:xlink="http://www.w3.org/1999/xlink" x="0px" y="0px"
	 viewBox="0 0 713.7 220.7" style="enable-background:new 0 0 713.7 220.7;" xml:space="preserve">
<style type="text/css">
	.st0{fill:#FFFFFF;}
	.st1{fill:#001689;}
	.st2{stroke:#000000;stroke-width:0.25;stroke-miterlimit:10;}
</style>
<g>
	<g>
		<rect width="231" height="220.7"/>
		<rect x="3.3" y="3.2" class="st0" width="224.4" height="214.3"/>
		<rect x="5.5" y="5.3" class="st1" width="220" height="210.1"/>
		<path class="st0" d="M115.2,205.5c52.5,0,95.1-42.6,95.1-95.1s-42.6-95.1-95.1-95.1s-95.1,42.6-95.1,95.1S62.7,205.5,115.2,205.5"
			/>
		<path class="st1" d="M111.6,175c0,0,3.4,0,3.4-3.4v-125c0,0,0-3.4-3.4-3.4H76.8c0,0-3.4,0-3.4,3.4v76.2l-22.5-17
			c0,0-2.7-2.1-2.7,1.4v64.5c0,0,0,3.4,3.4,3.4"/>
		<path class="st1" d="M118.1,171.6c0,0,0,3.4,3.4,3.4h53.1c0,0,3.4,0,2-3.1l-21.3-45.7h19.3c0,0,3.4,0,3.4-3.4V46.7
			c0,0,0-3.4-3.4-3.4h-53c0,0-3.4,0-3.4,3.4"/>
	</g>
	<g>
		<path d="M250.1,149.8c0-2.1,0-3.8,0-5.9c154.3,0,308.5,0,462.9,0c0,1.9,0,3.7,0,5.9C559,149.8,404.8,149.8,250.1,149.8z"/>
		<path class="st2" d="M402.9,129.8c-3.9,0-7.6,0-11.9,0c0-38.6,0-77.1,0-115.8c-3.8,0-7.1,0-10.8,0c0,38.5,0,76.8,0,115.6
			c-4.3,0-8.3,0-12.7,0c0-38.4,0-76.7,0-115.5c-3.7,0-6.9,0-10.8,0c0,38.3,0,76.8,0,115.5c-4.8,0-8.9,0-13.6,0
			c-0.1-1.2-0.4-2.6-0.4-3.9c0-35.5-0.1-71.1,0.1-106.6c0-6.3,0.9-13.7,8.4-15.1c6.1-1.2,12.8,0,19.1,0.8c2.2,0.3,3.8,0.2,5.9-0.1
			c7.1-0.8,14.6-1,21.6,0.3c2.3,0.4,5.3,6,5.3,9.3c0.3,38,0.2,76.1,0.1,114.1C403.5,128.8,403.2,129.1,402.9,129.8z"/>
		<path class="st2" d="M333.1,129.7c-4.5,0-8.4,0-12.6,0c0-20.8,0-41.3,0-62.3c-3.6,0-6.9,0-10.7,0c0,20.6,0,41.3,0,62.2
			c-4.4,0-8.2,0-12.8,0c0-1.8,0-3.7,0-5.6c0-35.7,0-71.4,0-107.1c0-9.8,4.2-14,14.2-13.8c5.2,0.1,10.5,0.5,15.6,1.6
			c4.5,1,6.3,5.4,6.3,9.4C333.2,52.6,333.1,90.9,333.1,129.7z M309.9,56.2c3.7,0,6.9,0,10.1,0c0-14.3,0-28.3,0-42.3
			c-3.6,0-6.7,0-10.1,0C309.9,28.1,309.9,42,309.9,56.2z"/>
		<path class="st2" d="M557.2,129.7c-4.4,0-8.2,0-12.6,0c0-20.8,0-41.5,0-62.5c-3.7,0-6.9,0-10.6,0c0,20.6,0,41.3,0,62.3
			c-4.4,0-8.2,0-12.5,0c0-41.8,0-83.8,0-127c8.9,0.6,17.8,0.6,26.6,1.9c6.2,0.9,9.1,5.8,9.1,12.3c0,10.7-0.2,21.3,0.1,32
			c0.1,5.2-0.3,9.9-4.3,12.4c1.5,3.2,4,5.9,4,8.7C557.4,89.7,557.2,109.4,557.2,129.7z M544.1,56.2c0-13.6,0-27.2,0-41.2
			c-3.3,0-6.6,0-10.1,0c0,13.8,0,27.4,0,41.2C537.4,56.2,540.5,56.2,544.1,56.2z"/>
		<path class="st2" d="M709.1,62.3c1.1,2.1,3.6,4.6,3.7,7.3c0.3,19.9,0.2,39.8,0.2,60c-4.2,0-8.1,0-12.5,0c0-20.6,0-41.1,0-62.1
			c-3.6,0-6.9,0-10.8,0c0,20.5,0,41.2,0,62.2c-4.4,0-8.2,0-12.5,0c0-41.8,0-83.8,0-126.9c8.8,0.6,17.8,0.7,26.6,1.8
			c5.5,0.7,9.1,6.2,9.1,11.9c0.1,12.1,0.3,24.2-0.2,36.2C712.7,56,710.3,59.2,709.1,62.3z M699.9,56.3c0-14.1,0-27.7,0-41.2
			c-3.6,0-6.9,0-10.1,0c0,13.9,0,27.5,0,41.2C693.3,56.3,696.5,56.3,699.9,56.3z"/>
		<path class="st2" d="M451.7,87.7c4.5,0,8.3,0,12.6,0c0,10.5,0,20.7,0,31.4c3.7,0,6.9,0,10.6,0c0-17.1,0-34.2,0-52
			c-4.4,0-8.8,0.1-13.2,0c-5.9-0.1-9.9-4.1-9.9-9.9c-0.1-13.9-0.1-27.7,0-41.6c0-7.7,4.7-12.5,12.5-12.3c5.7,0.1,11.6,0.3,17.2,1.7
			c4.5,1.1,6.7,5.1,6.6,10.2c-0.2,8.2-0.1,16.3-0.1,24.9c-4.2,0-8.2,0-12.5,0c0-8.5,0-17,0-25.9c-3.7,0-6.9,0-10.6,0
			c0,13.8,0,27.7,0,42.4c4.4,0,8.7-0.1,13.1,0c5.9,0.1,9.9,4,10,9.9c0.1,17.1,0.1,34.1,0,51.2c0,6.9-3.3,11.3-10.3,12.3
			c-5.8,0.8-11.8,0.7-17.6-0.2c-4.8-0.7-8-4.5-8.2-9.5C451.5,109.5,451.7,98.8,451.7,87.7z"/>
		<path class="st2" d="M610.1,80.2c0.5-7.3,1-14.3,1.6-21.3c1.3-14.8,2.8-29.7,4.2-44.5c0-0.2,0-0.4,0-0.5c0.3-3.3-0.5-8.6,1.1-9.5
			c3.2-1.8,7.8-1.2,13.3-1.7c-4.9,42.8-9.6,84.7-14.5,127c-3.7,0-7.2,0-11.8,0c-4.9-41.8-9.8-83.8-14.8-126.2c4.6,0,8.8,0,13.7,0
			C605.3,28.8,607.7,54.2,610.1,80.2z"/>
		<path class="st2" d="M273.3,3.3c5,0,9,0,13.9,0c0,1.9,0,3.8,0,5.6c0,34.6-0.1,69.3,0,103.9c0.1,16.8-9.5,19.6-23.1,17.6
			c-12.1-1.8-14.1-5.5-14.1-17.8c0-8.2,0-16.3,0-24.8c4.2,0,8.2,0,12.6,0c0,10.3,0,20.6,0,31.2c3.6,0,6.9,0,10.7,0
			C273.3,80.7,273.3,42.2,273.3,3.3z"/>
		<path class="st2" d="M667.9,3.5c0,3.7,0,7.2,0,11.2c-5.5,0-10.9,0-16.6,0c0,14,0,27.5,0,41.5c5.3,0,10.7,0,16.5,0
			c0,3.7,0,6.8,0,10.6c-5.2,0-10.6,0-16.4,0c0,17.7,0,34.8,0,52.6c5.4,0,10.8,0,16.5,0c0,3.7,0,6.8,0,10.3c-9.6,0-19.1,0-29.1,0
			c0-41.8,0-83.8,0-126.2C648.4,3.5,658,3.5,667.9,3.5z"/>
		<path class="st2" d="M414.7,3.3c9.4,0,18.5,0,27.9,0c0,3.7,0,7.3,0,11.3c-5,0-9.9,0-15.2,0c0,14,0,27.5,0,41.7c4.9,0,9.9,0,15.3,0
			c0,3.7,0,6.8,0,10.6c-5,0-10,0-15.4,0c0,17.7,0,34.8,0,52.4c5,0,9.9,0,15.3,0c0,3.6,0,6.9,0,10.4c-9.2,0-18.3,0-27.9,0
			C414.7,87.7,414.7,45.7,414.7,3.3z"/>
		<path class="st2" d="M580.3,129.8c-4.1,0-7.8,0-11.9,0c0-42.1,0-84.1,0-126.4c3.9,0,7.7,0,11.9,0
			C580.3,45.4,580.3,87.4,580.3,129.8z"/>
		<g>
			<path d="M503.9,213c-5.7,0-10.5,0-16.1,0c0-1.4,0-2.8,0-4.2c0-13.3,0-26.5,0-39.8c0-8,3.4-8.6,10.5-9c8.1-0.5,16.2,0.6,24.4,0.6
				c5.2,0,10.5-0.9,15.7-0.9c5.6,0,11.4,0.2,16.8,1.2c2,0.3,4.7,3,4.8,4.7c0.3,15.4,0.2,30.9,0.1,46.3c0,0.3-0.2,0.5-0.5,1
				c-4.4,0-9,0-14.1,0c0-16.1,0-32.2,0-48.5c-4.5,0-8.5,0-12.9,0c0,16.2,0,32.1,0,48.4c-5.4,0-10.4,0-15.8,0c0-16,0-32,0-48.3
				c-4.4,0-8.3,0-12.9,0C503.9,180.4,503.9,196.5,503.9,213z"/>
			<path d="M323.7,213.1c-0.1,1.9-0.3,3.3-0.4,5c-4.8,0-9.5,0-14.4,0c-0.1-1.6-0.2-3-0.4-4.7c-1.2-0.1-2.4-0.2-3.6-0.3
				c-8.5-0.7-11.2-3.1-11.2-10c0-11.2,0-22.4,0-33.6c0-6.2,2.3-9.2,9.7-9.5c9.5-0.4,19,0.2,28.5,0.7c3.6,0.2,5.4,2.3,5.4,5.4
				c-0.1,13.5,0,27.1,0,40.6c0,3.7-3,5.6-9.4,6.3C326.7,213.2,325.4,213.1,323.7,213.1z M309.9,164.3c0,15,0,29.6,0,44.3
				c4.3,0,8.3,0,12.2,0c0-14.9,0-29.5,0-44.3C318,164.3,314.1,164.3,309.9,164.3z"/>
			<path d="M349.2,160c5.5,0,10.4,0,15.7,0c0,16.2,0,32.1,0,48.5c4.4,0,8.3,0,12.9,0c0-15.9,0-32,0-48.4c5.5,0,10.4,0,16.1,0
				c0,1.3,0,2.7,0,4.1c0,13.1,0,26.2,0,39.3c0,5.8-1.6,8.5-8.4,8.9c-9.9,0.6-20,0.2-29.9-0.4c-3.8-0.2-6.3-3-6.3-6.5
				C349.1,190.5,349.2,175.5,349.2,160z"/>
			<path d="M632.8,213c-5.4,0-9.8,0-15,0c0-1.6,0-3.2,0-4.7c0-13.3,0.3-26.5-0.1-39.8c-0.2-4.9,1.9-7.5,7.5-8.1
				c10.2-1.1,20.4-1.4,30.6,0.4c3.7,0.6,5.7,2.6,5.7,5.8c0,15.3,0,30.6,0,46.2c-4.9,0-9.6,0-14.6,0c0-16,0-32,0-48.3
				c-4.7,0-9.1,0-14,0C632.8,180.4,632.8,196.5,632.8,213z"/>
			<path d="M450.5,213c-5.7,0-10.5,0-15.7,0c0-17.6,0-35.2,0-52.3c12,0,24-0.3,35.9,0.1c5,0.2,8.2,2.5,7.4,7.5
				c-0.6,3.9,0.3,7.9-0.3,11.8c-0.3,1.8-2.5,4.5-4.4,4.8c-7.3,1.3-14.8,1.9-22.9,2.8C450.5,195.6,450.5,204.1,450.5,213z
				 M450.7,165.1c0,5.7,0,11,0,16.3c4.3,0,8.3,0,12.2,0c0-5.6,0-10.9,0-16.3C458.7,165.1,454.9,165.1,450.7,165.1z"/>
			<path d="M573.4,159.9c11.7,0,22.8,0,34.3,0c0,1.6,0,3.1,0,4.9c-6.1,0-12.1,0-18.4,0c0,5.6,0,10.9,0,16.7c6.1,0,12.2,0,18.5,0
				c0,1.9,0,3.3,0,5.2c-6.1,0-12.2,0-18.6,0c0,7.2,0,14,0,21.1c6.2,0,12.1,0,18.5,0c0,1.8,0,3.3,0,5c-11.3,0-22.6,0-34.3,0
				C573.4,195.3,573.4,177.8,573.4,159.9z"/>
			<path d="M265.1,181.6c6.2,0,12.2,0,18.5,0c0,1.8,0,3.3,0,5.1c-6,0-12,0-18.4,0c0,7.1,0,13.8,0,21.1c6,0,12.1,0,18.5,0
				c0,1.9,0,3.3,0,5c-11,0-22.1,0-33.4,0c0-17.5,0-34.9,0-52.7c11.1,0,22.1,0,33.5,0c0,1.5,0,2.9,0,4.8c-6.1,0-12.2,0-18.6,0
				C265.1,170.6,265.1,175.9,265.1,181.6z"/>
			<path d="M684.2,164.9c-5.1,0-9.3,0-13.8,0c0-1.7,0-3.1,0-4.8c14.2,0,28.5,0,43.1,0c0.1,1.4,0.2,2.8,0.3,4.7c-4.9,0-9.6,0-14.8,0
				c0,16.2,0,32,0,48c-5.1,0-9.6,0-14.7,0C684.2,197.1,684.2,181.3,684.2,164.9z"/>
			<path d="M406.1,159.9c5.2,0,9.9,0,15.1,0c0,17.6,0,35.1,0,52.9c-4.9,0-9.8,0-15.1,0C406.1,195.4,406.1,177.8,406.1,159.9z"/>
		</g>
	</g>
</g>
</svg>
