<?xml version="1.0" encoding="utf-8"?>
<!-- Generator: Adobe Illustrator 19.0.0, SVG Export Plug-In . SVG Version: 6.00 Build 0)  -->
<svg version="1.1" id="Layer_1" xmlns="http://www.w3.org/2000/svg" xmlns:xlink="http://www.w3.org/1999/xlink" x="0px" y="0px"
	 viewBox="0 0 1080 1920" style="enable-background:new 0 0 1080 1920;" xml:space="preserve">
<style type="text/css">
	.st0{fill:#FFFFFF;}
</style>
<rect id="XMLID_1_" width="1080" height="1920"/>
<g id="XMLID_31_">
	<path id="XMLID_30_" class="st0" d="M694.3,1140l-82.1-36.2l79.9-35.4c10.7,8.3,24.2,13.3,38.9,13.3c34.6,0,62.6-27.5,62.6-61.4
		c0-2.6-0.2-5.1-0.5-7.6l-63.2,28.1l-14.1-30.3l64.1-28.5c-11.5-14.1-29.1-23.1-48.9-23.1c-34.2,0-62,26.9-62.6,60.4l-123.7,54.9
		l-133.3-58.7c1.2-16-4-32.5-15.8-45.4c-23.1-25.3-62.6-27.4-88.4-4.8c-2,1.7-3.8,3.5-5.4,5.4l63.5,27.5l-13.7,30.5l-64.4-27.8
		c-3,17.8,1.9,36.7,15.1,51.1c20,22,52.5,26.4,77.6,12.4l93.7,41.3l-77.5,34.4c-11.5-12.9-28.3-21-47.1-21
		c-34.6,0-62.6,27.5-62.6,61.4c0,2.6,0.2,5.1,0.5,7.6l63.2-28.1l14,30.3l-64.1,28.5c11.5,14.1,29.1,23.1,48.9,23.1
		c30,0,55.1-20.8,61.2-48.4l131-58.1l127.3,56c0.4,14.1,5.6,28.1,15.9,39.4c23.1,25.2,62.7,27.4,88.4,4.8c2-1.7,3.8-3.5,5.5-5.4
		l-63.5-27.4l13.7-30.5l64.4,27.8c3-17.8-1.9-36.7-15.1-51.1C756.1,1125.2,720,1121.8,694.3,1140z"/>
	<g id="XMLID_37_">
		<path id="XMLID_63_" class="st0" d="M405.5,1399.1c0,7.4-6.7,11.1-20.2,11.1l-66.8,0c-13.2,0-19.8-3.7-19.8-11.1l0-28h32.8l0,23.5
			h41.3l0-46.6l-74.1,0l3.6-59l101.7,0v15.9l-70.8,0l-2.2,27.6l54.3,0c13.5,0,20.2,3.7,20.2,11L405.5,1399.1z"/>
		<path id="XMLID_61_" class="st0" d="M529.2,1399.1c0,7.4-6.7,11.1-20.2,11.1l-66.8,0c-13.2,0-19.8-3.7-19.8-11.1l0-28l32.8,0
			l0,23.5l41.3,0v-46.7l-74.1,0l3.6-59.1l101.7,0l0,15.9l-70.8,0l-2.2,27.6l54.3,0c13.5,0,20.2,3.7,20.2,11L529.2,1399.1z"/>
		<path id="XMLID_59_" class="st0" d="M661.4,1387.3l-17,0l0,22.9l-31.8,0l0-22.9l-73.2,0v-10.8l55.4-87.6h33.9c0,0.4,0,0.6,0,0.7
			l-52,82.3l35.9,0v-36.5l31.8,0l0,36.5h17V1387.3z"/>
		<path id="XMLID_38_" class="st0" d="M781.3,1399.2c0,7.4-6.7,11.1-20.1,11.1l-67.7,0c-13.5,0-20.2-3.7-20.2-11.1l0-99
			c0-7.4,6.6-11.2,19.8-11.2l67.5,0c13.4,0,20.1,3.7,20.1,11.2v25.6H748l0-21.2l-41.9,0l0,36.5l55.1,0c13.4,0,20.1,3.6,20.1,10.9
			L781.3,1399.2z M748.7,1394.7l0-38.2l-42.6,0v38.2L748.7,1394.7z"/>
	</g>
	<path id="XMLID_34_" class="st0" d="M772.3,761.2v-47h-27.6c-1.3-11.4-3.7-22.5-6.9-33.3l25.4-10.5l-18.7-43.3l-25.4,10.5
		c-5.2-8.9-11-17.3-17.5-25.3l19.5-19.1l-33.9-33.2L667.8,579c-9-7-18.7-13.3-28.9-18.8l10.3-25.1l-44.4-17.6l-10.3,25.1
		c-9.9-2.7-20.1-4.6-30.6-5.8v-27.1H516v27.1c-11.6,1.3-23,3.6-34,6.7l-10.7-24.9l-44.1,18.4l10.8,24.9
		c-9.1,5.1-17.7,10.8-25.8,17.1l-19.5-19.1l-33.9,33.2l19.5,19.1c-7.2,8.9-13.6,18.3-19.2,28.3l-25.5-10.1l-18,43.6l25.5,10.1
		c-2.7,9.7-4.7,19.7-5.9,30h-27.6v47h27.6c1.3,11.4,3.7,22.5,6.9,33.3l-25.4,10.6l18.7,43.3l25.4-10.6c5.2,8.9,11,17.4,17.5,25.3
		l-19.5,19.1l33.9,33.2l19.5-19.1c9,7,18.7,13.3,28.9,18.8l-10.3,25.1l44.4,17.6l10.3-25.1c9.9,2.7,20.1,4.6,30.6,5.8v27.1H564
		v-27.1c11.6-1.3,23-3.6,33.9-6.7l10.8,24.9l44.1-18.3L642,913.5c9.1-5.1,17.7-10.8,25.8-17.1l19.5,19.1l33.9-33.2l-19.5-19.1
		c7.2-8.9,13.6-18.3,19.2-28.3l25.6,10.1l18-43.6l-25.6-10.1c2.7-9.7,4.7-19.8,5.9-30H772.3z M540,869.9
		c-74.4,0-134.7-59.2-134.7-132.2c0-73,60.3-132.2,134.7-132.2c74.4,0,134.7,59.2,134.7,132.2C674.7,810.7,614.4,869.9,540,869.9z"
		/>
</g>
</svg>
