<?xml version="1.0" encoding="utf-8"?>
<!-- Generator: Adobe Illustrator 19.0.0, SVG Export Plug-In . SVG Version: 6.00 Build 0)  -->
<svg version="1.1" id="Layer_1" xmlns="http://www.w3.org/2000/svg" xmlns:xlink="http://www.w3.org/1999/xlink" x="0px" y="0px"
	 viewBox="0 0 1920 1080" style="enable-background:new 0 0 1920 1080;" xml:space="preserve">
<style type="text/css">
	.st0{fill:#FFFFFF;}
</style>
<rect id="XMLID_1_" x="0" y="0" width="1920" height="1080"/>
<g id="XMLID_31_">
	<path id="XMLID_30_" class="st0" d="M1071.2,669.7l-59.1-26l57.6-25.5c7.7,6,17.4,9.6,28,9.6c24.9,0,45.1-19.8,45.1-44.2
		c0-1.9-0.1-3.7-0.4-5.5l-45.5,20.3l-10.1-21.9l46.1-20.5c-8.3-10.1-21-16.6-35.2-16.6c-24.7,0-44.7,19.4-45.1,43.5l-89.1,39.5
		l-96.1-42.3c0.9-11.5-2.9-23.4-11.4-32.7c-16.6-18.2-45.1-19.8-63.7-3.4c-1.4,1.2-2.7,2.5-3.9,3.9l45.8,19.8l-9.9,22l-46.4-20
		c-2.2,12.8,1.3,26.4,10.9,36.8c14.4,15.8,37.8,19,55.9,9l67.5,29.7l-55.9,24.8c-8.3-9.3-20.4-15.1-33.9-15.1
		c-24.9,0-45.1,19.8-45.1,44.3c0,1.9,0.1,3.7,0.3,5.5l45.6-20.3l10.1,21.9l-46.2,20.5c8.3,10.1,21,16.6,35.2,16.6
		c21.6,0,39.7-15,44.1-34.9l94.4-41.9l91.7,40.4c0.3,10.1,4,20.2,11.5,28.4c16.6,18.2,45.1,19.7,63.7,3.4c1.4-1.2,2.7-2.5,3.9-3.9
		l-45.8-19.8l9.9-22l46.4,20c2.2-12.8-1.4-26.4-10.9-36.8C1115.7,659,1089.7,656.6,1071.2,669.7z"/>
	<g id="XMLID_37_">
		<path id="XMLID_63_" class="st0" d="M863.1,856.3c0,5.3-4.9,8-14.6,8l-48.1,0c-9.5,0-14.3-2.7-14.3-8l0-20.1h23.6l0,16.9h29.8
			l0-33.6l-53.4,0l2.6-42.5l73.3,0v11.4l-51,0l-1.6,19.9l39.1,0c9.7,0,14.6,2.6,14.6,7.9L863.1,856.3z"/>
		<path id="XMLID_61_" class="st0" d="M952.2,856.3c0,5.3-4.9,8-14.6,8l-48.1,0c-9.5,0-14.3-2.7-14.3-8l0-20.2l23.6,0l0,16.9l29.8,0
			v-33.6l-53.4,0l2.6-42.5l73.3,0l0,11.4l-51,0l-1.6,19.9l39.1,0c9.7,0,14.6,2.7,14.6,7.9L952.2,856.3z"/>
		<path id="XMLID_59_" class="st0" d="M1047.5,847.9l-12.2,0l0,16.5l-22.9,0l0-16.5l-52.7,0v-7.8l39.9-63.1h24.4c0,0.3,0,0.4,0,0.5
			l-37.5,59.3l25.9,0v-26.3l22.9,0l0,26.3h12.2V847.9z"/>
		<path id="XMLID_38_" class="st0" d="M1133.8,856.4c0,5.3-4.8,8-14.5,8l-48.7,0c-9.7,0-14.6-2.7-14.6-8l0-71.3c0-5.4,4.8-8,14.3-8
			l48.6,0c9.6,0,14.5,2.7,14.5,8.1v18.5h-23.6l0-15.3l-30.2,0l0,26.3l39.7,0c9.7,0,14.5,2.6,14.5,7.9L1133.8,856.4z M1110.3,853.2
			l0-27.5l-30.7,0v27.5L1110.3,853.2z"/>
	</g>
	<path id="XMLID_34_" class="st0" d="M1127.4,396.8v-33.9h-19.9c-1-8.2-2.6-16.2-5-24l18.3-7.6l-13.5-31.2l-18.3,7.6
		c-3.7-6.4-7.9-12.5-12.6-18.2l14.1-13.8l-24.4-23.9l-14.1,13.8c-6.5-5.1-13.5-9.6-20.8-13.5l7.5-18.1l-32-12.7l-7.4,18
		c-7.1-1.9-14.5-3.3-22-4.2v-19.5h-34.5v19.5c-8.4,1-16.6,2.6-24.5,4.9l-7.7-17.9l-31.8,13.2l7.8,17.9c-6.5,3.7-12.7,7.8-18.6,12.3
		l-14.1-13.8l-24.4,23.9l14.1,13.8c-5.2,6.4-9.8,13.2-13.8,20.4l-18.4-7.3L798.4,334l18.4,7.3c-2,7-3.4,14.2-4.3,21.6h-19.9v33.9
		h19.9c1,8.2,2.6,16.2,4.9,24l-18.3,7.6l13.5,31.2l18.3-7.6c3.7,6.4,7.9,12.5,12.6,18.3L829.4,484l24.4,23.9l14.1-13.8
		c6.5,5.1,13.5,9.6,20.8,13.5l-7.4,18l32,12.7l7.4-18c7.2,1.9,14.5,3.3,22,4.2V544h34.5v-19.5c8.4-1,16.6-2.6,24.5-4.9l7.8,17.9
		l31.8-13.2l-7.7-17.9c6.5-3.7,12.7-7.8,18.6-12.3l14.1,13.8l24.4-23.9l-14.1-13.8c5.2-6.4,9.8-13.2,13.8-20.4l18.4,7.3l12.9-31.4
		l-18.4-7.3c2-7,3.4-14.2,4.3-21.6H1127.4z M960,475.1c-53.6,0-97.1-42.6-97.1-95.2c0-52.6,43.5-95.2,97.1-95.2
		c53.6,0,97.1,42.6,97.1,95.2C1057.1,432.4,1013.6,475.1,960,475.1z"/>
</g>
</svg>
