<?xml version="1.0" encoding="utf-8"?>
<!-- Generator: Adobe Illustrator 19.0.0, SVG Export Plug-In . SVG Version: 6.00 Build 0)  -->
<svg version="1.1" id="Layer_1" xmlns="http://www.w3.org/2000/svg" xmlns:xlink="http://www.w3.org/1999/xlink" x="0px" y="0px"
	 viewBox="0 0 488.4 1028.7" style="enable-background:new 0 0 488.4 1028.7;" xml:space="preserve">
<style type="text/css">
	.st0{fill:#FFFFFF;}
</style>
<g>
	<polygon points="242.5,0 0.5,149.7 0,149 0,878.8 245.9,1028.7 487.9,879.1 488.4,879.8 488.4,150 	"/>
	<path class="st0" d="M370.6,641.9l-67.2-29.6l65.4-29c8.7,6.8,19.8,10.9,31.8,10.9c28.3,0,51.3-22.5,51.3-50.3
		c0-2.1-0.1-4.2-0.4-6.2l-51.8,23l-11.5-24.8l52.5-23.3c-9.4-11.5-23.8-18.9-40-18.9c-28,0-50.8,22.1-51.3,49.4L248.1,588
		l-109.2-48.1c1-13.1-3.3-26.6-12.9-37.2c-18.9-20.7-51.3-22.5-72.4-3.9c-1.6,1.4-3.1,2.9-4.5,4.4l52,22.5l-11.2,25L37.2,528
		c-2.5,14.6,1.5,30,12.3,41.9c16.4,18,43,21.6,63.5,10.2l76.8,33.8L126.3,642c-9.4-10.5-23.2-17.2-38.6-17.2
		c-28.3,0-51.3,22.5-51.3,50.3c0,2.1,0.1,4.2,0.4,6.2l51.8-23l11.5,24.9l-52.5,23.3c9.4,11.5,23.8,18.9,40.1,18.9
		c24.6,0,45.2-17,50.1-39.7l107.3-47.6l104.2,45.9c0.3,11.5,4.6,23,13.1,32.3c18.9,20.7,51.3,22.4,72.4,3.9c1.6-1.4,3.1-2.9,4.5-4.5
		l-52-22.5l11.2-25l52.7,22.8c2.5-14.6-1.5-30-12.4-41.9C421.1,629.8,391.6,627,370.6,641.9z"/>
	<g>
		<path class="st0" d="M134,854.1c0,6-5.5,9.1-16.6,9.1l-54.7,0c-10.8,0-16.2-3-16.2-9.1l0-22.9h26.8l0,19.2h33.8l0-38.2l-60.7,0
			l2.9-48.3l83.3,0v13l-58,0l-1.8,22.6l44.4,0c11,0,16.6,3,16.6,9L134,854.1z"/>
		<path class="st0" d="M235.4,854.1c0,6.1-5.5,9.1-16.6,9.1l-54.7,0c-10.8,0-16.2-3-16.2-9.1l0-22.9l26.8,0l0,19.2l33.8,0v-38.2
			l-60.6,0l2.9-48.4l83.3,0l0,13l-58,0l-1.8,22.6l44.4,0c11,0,16.6,3,16.6,9L235.4,854.1z"/>
		<path class="st0" d="M343.6,844.5l-13.9,0l0,18.7l-26,0l0-18.7l-60,0v-8.8l45.4-71.7h27.8c0,0.3,0,0.5,0,0.6l-42.6,67.4l29.4,0
			V802l26,0l0,29.9h13.9V844.5z"/>
		<path class="st0" d="M441.8,854.2c0,6-5.5,9.1-16.5,9.1l-55.4,0c-11,0-16.6-3-16.6-9.1l0-81.1c0-6.1,5.4-9.1,16.2-9.1l55.3,0
			c11,0,16.4,3.1,16.4,9.2v21h-26.8l0-17.4l-34.3,0l0,29.9l45.2,0c11,0,16.5,3,16.5,8.9L441.8,854.2z M415.1,850.5l0-31.3l-34.9,0
			v31.3L415.1,850.5z"/>
	</g>
	<path class="st0" d="M434.5,331.7v-38.5h-22.6c-1.1-9.3-3-18.5-5.6-27.3l20.8-8.6l-15.3-35.4l-20.8,8.6c-4.2-7.3-9-14.2-14.3-20.7
		l16-15.7l-27.8-27.2l-16,15.7c-7.4-5.7-15.3-10.9-23.6-15.4l8.5-20.5l-36.4-14.4l-8.4,20.5c-8.1-2.2-16.5-3.8-25.1-4.8v-22.2h-39.2
		V148c-9.5,1.1-18.8,2.9-27.8,5.5l-8.8-20.4l-36.1,15l8.8,20.4c-7.4,4.2-14.5,8.8-21.1,14l-16-15.7l-27.8,27.2l16,15.7
		c-5.9,7.3-11.1,15-15.7,23.2l-20.9-8.3l-14.7,35.7l20.9,8.3c-2.2,8-3.9,16.2-4.9,24.6H53.9v38.5h22.6c1.1,9.4,3,18.5,5.6,27.3
		l-20.8,8.6l15.3,35.4l20.8-8.6c4.2,7.3,9,14.2,14.3,20.8l-16,15.7l27.8,27.2l16-15.7c7.4,5.8,15.3,10.9,23.6,15.4l-8.5,20.5
		l36.4,14.4l8.5-20.5c8.1,2.2,16.5,3.8,25.1,4.8v22.2h39.2V477c9.5-1.1,18.8-2.9,27.8-5.5l8.8,20.4l36.1-15l-8.8-20.4
		c7.4-4.2,14.5-8.9,21.1-14l16,15.7l27.8-27.2l-16-15.7c5.9-7.3,11.1-15,15.7-23.2l20.9,8.3l14.7-35.7l-20.9-8.3
		c2.2-8,3.9-16.2,4.9-24.6H434.5z M244.2,420.7c-60.9,0-110.3-48.5-110.3-108.2c0-59.8,49.4-108.3,110.3-108.3
		c61,0,110.4,48.5,110.4,108.3C354.5,372.2,305.1,420.7,244.2,420.7z"/>
</g>
</svg>
