<?xml version="1.0" encoding="utf-8"?>
<!-- Generator: Adobe Illustrator 19.0.0, SVG Export Plug-In . SVG Version: 6.00 Build 0)  -->
<svg version="1.1" id="Layer_1" xmlns="http://www.w3.org/2000/svg" xmlns:xlink="http://www.w3.org/1999/xlink" x="0px" y="0px"
	 viewBox="0 0 1080 1920" style="enable-background:new 0 0 1080 1920;" xml:space="preserve">
<style type="text/css">
	.st0{fill:#FFFFFF;}
</style>
<rect id="XMLID_1_" width="1080" height="1920"/>
<g id="XMLID_75_">
	<polygon id="XMLID_73_" class="st0" points="219.7,836.5 540.6,749 860.3,838.3 860.3,1081.3 539.4,1171 219.7,1082.6 	"/>
	<g id="XMLID_76_">
		<polygon id="XMLID_72_" points="843,853.4 540.6,772.4 540.6,810.6 817.5,868.6 817.5,1050.1 540.6,1109 540.6,1151 843,1069.2 		
			"/>
		<polygon id="XMLID_71_" points="538.9,1109.4 260.4,1050.1 260.4,868.6 538.9,810.1 539.4,810.1 539.4,772.4 237,853.4 
			237,1069.2 539.4,1151 539.4,1109.4 		"/>
		<polygon id="XMLID_70_" points="425,1025.4 425,1059.6 445.4,1065.3 445.4,1028.4 		"/>
		<polygon id="XMLID_69_" points="467.9,1024.5 444.9,1021.9 427.2,1024.5 445.8,1027.1 		"/>
		<polygon id="XMLID_68_" points="446.2,1065.3 470.5,1060.1 470.5,1025.4 446.2,1028.4 		"/>
		<polygon id="XMLID_67_" points="654.1,1022.8 636.8,1020.2 613.4,1022.8 635.5,1025.8 		"/>
		<polygon id="XMLID_66_" points="611.3,1023.7 611.3,1058.8 635.1,1063.5 635.1,1026.7 		"/>
		<polygon id="XMLID_65_" points="636.4,1063.5 656.3,1058.3 656.3,1023.7 636.4,1026.7 		"/>
		<polygon id="XMLID_64_" points="756.4,1037.1 777.2,1032.8 777.2,1002.5 756.4,1005.1 		"/>
		<polygon id="XMLID_63_" points="775,1001.6 755.1,999.4 739.9,1001.6 755.9,1003.8 		"/>
		<polygon id="XMLID_62_" points="738.2,1002.5 738.2,1032.3 755.5,1037.1 755.5,1005.1 		"/>
		<polygon id="XMLID_61_" points="324.9,1039.7 342.7,1035.8 352.2,967.4 338.8,961.3 		"/>
		<path id="XMLID_95_" d="M376,868.2l-49.8,10.4l-27.3,155.5l24.7,5.2l14.3-79.7h26.9v0.4l8.7,87.5l22.1,4.3L376,868.2L376,868.2z
			 M362.2,937h-21.7l6.1-39.9h11.3l2.2,19.5l3.5,19.5h-0.9v0.9H362.2z"/>
		<polygon id="XMLID_58_" points="398.6,870.8 377.3,868.6 396.8,1052.7 419.4,1048.8 		"/>
		<polygon id="XMLID_57_" points="347.5,898.5 341.8,935.7 356.1,935.7 358.7,919.7 356.5,898.5 		"/>
		<polygon id="XMLID_38_" points="341.4,960.9 353.9,966.5 364.3,966.1 363.9,961.3 		"/>
		<polygon id="XMLID_37_" points="504.7,940.5 524.6,942.2 524.2,869.5 504.7,863.4 		"/>
		<polygon id="XMLID_36_" points="554.9,869 574.4,863.8 540.6,856.9 540.6,865.6 		"/>
		<polygon id="XMLID_35_" points="583.1,973.4 600,966.9 581.8,968.7 		"/>
		<polygon id="XMLID_34_" points="540.6,978.2 564.9,1071.3 583.1,1075.2 555.8,970.8 		"/>
		<polygon id="XMLID_33_" points="555.8,942.2 578.3,940.5 576.6,864.7 555.8,869.9 		"/>
		<polygon id="XMLID_32_" points="506.4,862.5 525.1,868.6 539.8,865.6 539.8,856.5 539.4,856.5 		"/>
		<polygon id="XMLID_31_" points="504.7,1076.5 519.4,1070.9 520.7,976.9 503.8,969.1 		"/>
		<polygon id="XMLID_30_" points="539.8,971.3 539.8,944.8 528.5,943.5 503.4,941.4 503.4,862.1 539.8,855.2 539.8,855.2 
			539.4,832.6 480,846.1 479.1,1072.2 503.4,1077 503.4,1077 502.5,967.8 		"/>
		<polygon id="XMLID_29_" points="540.6,833.1 540.6,855.6 577.9,863.4 579.2,941.8 554.9,943.5 540.6,944.8 540.6,971.3 
			556.7,969.5 557.1,970 584.4,1074.8 603.5,1069.6 582.2,973.9 582.2,973.9 580.5,967.4 600.9,965.6 601.3,848.2 		"/>
		<polygon id="XMLID_28_" points="540.6,972.6 506.9,969.5 522,976 521.6,976 538.5,977.8 552.8,971.3 		"/>
		<polygon id="XMLID_27_" points="657.6,859.9 635.1,863 635.1,890.7 657.6,887.2 		"/>
		<polygon id="XMLID_26_" points="726.1,911.9 741.6,915.8 762.9,912.8 726.1,904.6 		"/>
		<polygon id="XMLID_25_" points="658,888.1 636.8,891.6 671.9,899.4 692.7,896.8 		"/>
		<polygon id="XMLID_24_" points="673.2,900.2 672.8,1044 695.7,1048.4 695.7,897.6 		"/>
		<path id="XMLID_21_" d="M696.2,896.3c0.4,0,0.4,0.4,0.4,0.4l0,0v151.6h0.9l26.9-6.5l0.4-49.4l0.4-89.7l39.4,9.1l1.3-26.4l-107-26
			v27.3L696.2,896.3z"/>
	</g>
</g>
</svg>
