<?xml version="1.0" encoding="utf-8"?>
<!-- Generator: Adobe Illustrator 19.0.0, SVG Export Plug-In . SVG Version: 6.00 Build 0)  -->
<svg version="1.1" id="Layer_1" xmlns="http://www.w3.org/2000/svg" xmlns:xlink="http://www.w3.org/1999/xlink" x="0px" y="0px"
	 viewBox="0 0 1920 1080" style="enable-background:new 0 0 1920 1080;" xml:space="preserve">
<style type="text/css">
	.st0{fill:#FFFFFF;}
</style>
<rect id="XMLID_1_" x="0" y="0.3" width="1920" height="1080"/>
<g id="XMLID_75_">
	<polygon id="XMLID_73_" class="st0" points="529.9,374.6 960.9,257.1 1390.1,376.9 1390.1,703.2 959.1,823.6 529.9,704.9 	"/>
	<g id="XMLID_76_">
		<polygon id="XMLID_72_" points="1366.8,397.3 960.9,288.5 960.9,339.7 1332.5,417.6 1332.5,661.3 960.9,740.4 960.9,796.8 
			1366.8,686.9 		"/>
		<polygon id="XMLID_71_" points="958.5,741 584.6,661.3 584.6,417.6 958.5,339.1 959.1,339.1 959.1,288.5 553.2,397.3 553.2,686.9 
			959.1,796.8 959.1,741 		"/>
		<polygon id="XMLID_70_" points="805.6,628.2 805.6,674.1 832.9,681.7 832.9,632.2 		"/>
		<polygon id="XMLID_69_" points="863.2,627 832.3,623.5 808.5,627 833.5,630.5 		"/>
		<polygon id="XMLID_68_" points="834.1,681.7 866.7,674.7 866.7,628.2 834.1,632.2 		"/>
		<polygon id="XMLID_67_" points="1113.2,624.7 1090,621.2 1058.6,624.7 1088.2,628.7 		"/>
		<polygon id="XMLID_66_" points="1055.7,625.8 1055.7,672.9 1087.7,679.3 1087.7,629.9 		"/>
		<polygon id="XMLID_65_" points="1089.4,679.3 1116.2,672.4 1116.2,625.8 1089.4,629.9 		"/>
		<polygon id="XMLID_64_" points="1250.5,643.9 1278.4,638.1 1278.4,597.3 1250.5,600.8 		"/>
		<polygon id="XMLID_63_" points="1275.5,596.2 1248.8,593.3 1228.4,596.2 1249.9,599.1 		"/>
		<polygon id="XMLID_62_" points="1226.1,597.3 1226.1,637.5 1249.3,643.9 1249.3,600.8 		"/>
		<polygon id="XMLID_61_" points="671.2,647.4 695.1,642.1 707.9,550.2 689.9,542.1 		"/>
		<path id="XMLID_95_" d="M739.9,417.1L673,431l-36.6,208.8l33.1,7l19.2-107h36.1v0.6l11.6,117.5l29.7,5.8L739.9,417.1L739.9,417.1z
			 M721.3,509.5h-29.1l8.1-53.5h15.1l2.9,26.2l4.7,26.2h-1.2v1.2H721.3z"/>
		<polygon id="XMLID_58_" points="770.1,420.5 741.6,417.6 767.8,664.8 798,659.6 		"/>
		<polygon id="XMLID_57_" points="701.5,457.8 693.9,507.8 713.1,507.8 716.6,486.3 713.7,457.8 		"/>
		<polygon id="XMLID_38_" points="693.3,541.5 710.2,549.1 724.2,548.5 723.6,542.1 		"/>
		<polygon id="XMLID_37_" points="912.6,514.2 939.4,516.5 938.8,418.8 912.6,410.7 		"/>
		<polygon id="XMLID_36_" points="980.1,418.2 1006.2,411.2 960.9,401.9 960.9,413.6 		"/>
		<polygon id="XMLID_35_" points="1017.9,558.4 1040.5,549.7 1016.1,552 		"/>
		<polygon id="XMLID_34_" points="960.9,564.8 993.4,689.8 1017.9,695 981.2,554.9 		"/>
		<polygon id="XMLID_33_" points="981.2,516.5 1011.5,514.2 1009.1,412.4 981.2,419.4 		"/>
		<polygon id="XMLID_32_" points="914.9,409.5 939.9,417.6 959.7,413.6 959.7,401.4 959.1,401.4 		"/>
		<polygon id="XMLID_31_" points="912.6,696.8 932.4,689.2 934.1,563 911.4,552.6 		"/>
		<polygon id="XMLID_30_" points="959.7,555.5 959.7,520 944.6,518.3 910.9,515.3 910.9,408.9 959.7,399.6 959.7,399.6 959.1,369.4 
			879.5,387.4 878.3,691 910.9,697.4 910.9,697.4 909.7,550.8 		"/>
		<polygon id="XMLID_29_" points="960.9,369.9 960.9,400.2 1010.9,410.7 1012.6,515.9 980.1,518.3 960.9,520 960.9,555.5 
			982.4,553.1 983,553.7 1019.6,694.5 1045.2,687.5 1016.7,559 1016.7,559 1014.4,550.2 1041.7,547.9 1042.3,390.3 		"/>
		<polygon id="XMLID_28_" points="960.9,557.2 915.5,553.1 935.9,561.9 935.3,561.9 958,564.2 977.2,555.5 		"/>
		<polygon id="XMLID_27_" points="1117.9,406 1087.7,410.1 1087.7,447.3 1117.9,442.6 		"/>
		<polygon id="XMLID_26_" points="1209.8,475.8 1230.7,481 1259.2,477 1209.8,465.9 		"/>
		<polygon id="XMLID_25_" points="1118.5,443.8 1090,448.5 1137.1,458.9 1165,455.4 		"/>
		<polygon id="XMLID_24_" points="1138.8,460.1 1138.3,653.2 1169.1,659 1169.1,456.6 		"/>
		<path id="XMLID_21_" d="M1169.7,454.9c0.6,0,0.6,0.6,0.6,0.6l0,0V659h1.2l36.1-8.7l0.6-66.3l0.6-120.4l52.9,12.2l1.7-35.5
			l-143.6-34.9v36.6L1169.7,454.9z"/>
	</g>
</g>
</svg>
