<?xml version="1.0" encoding="utf-8"?>
<!-- Generator: Adobe Illustrator 19.0.0, SVG Export Plug-In . SVG Version: 6.00 Build 0)  -->
<svg version="1.1" id="Layer_1" xmlns="http://www.w3.org/2000/svg" xmlns:xlink="http://www.w3.org/1999/xlink" x="0px" y="0px"
	 viewBox="-105.7 -245 1018 670.4" style="enable-background:new -105.7 -245 1018 670.4;" xml:space="preserve">
<style type="text/css">
	.st0{fill:#FFFFFF;}
</style>
<g>
	<polygon class="st0" points="-105.7,-105.9 404.4,-245 912.3,-103.2 912.3,282.9 402.3,425.4 -105.7,285 	"/>
	<g>
		<polygon points="884.8,-79.1 404.4,-207.8 404.4,-147.2 844.2,-55 844.2,233.4 404.4,327 404.4,393.8 884.8,263.7 		"/>
		<polygon points="401.6,327.7 -41,233.4 -41,-55 401.6,-147.9 402.3,-147.9 402.3,-207.8 -78.1,-79.1 -78.1,263.7 402.3,393.8 
			402.3,327.7 		"/>
		<polygon points="220.6,194.2 220.6,248.5 252.9,257.5 252.9,199 		"/>
		<polygon points="288.7,192.8 252.3,188.6 224,192.8 253.6,196.9 		"/>
		<polygon points="254.3,257.5 292.9,249.2 292.9,194.2 254.3,199 		"/>
		<polygon points="584.7,190 557.2,185.9 520,190 555.1,194.8 		"/>
		<polygon points="516.6,191.4 516.6,247.2 554.4,254.7 554.4,196.2 		"/>
		<polygon points="556.5,254.7 588.2,246.5 588.2,191.4 556.5,196.2 		"/>
		<polygon points="747.1,212.7 780.2,205.9 780.2,157.7 747.1,161.8 		"/>
		<polygon points="776.7,156.3 745.1,152.9 721,156.3 746.5,159.7 		"/>
		<polygon points="718.2,157.7 718.2,205.2 745.8,212.7 745.8,161.8 		"/>
		<polygon points="61.6,216.9 89.8,210.7 105,101.9 83.6,92.3 		"/>
		<path d="M142.8-55.7L63.7-39.2L20.3,207.9l39.2,8.3L82.2,89.5h42.7v0.7l13.8,139l35.1,6.9L142.8-55.7L142.8-55.7z M120.8,53.7
			H86.4L96-9.6h17.9l3.4,31l5.5,31h-1.4v1.4H120.8z"/>
		<polygon points="178.6,-51.6 144.9,-55 175.9,237.5 211.7,231.3 		"/>
		<polygon points="97.4,-7.5 88.4,51.7 111.2,51.7 115.3,26.2 111.8,-7.5 		"/>
		<polygon points="87.8,91.6 107.7,100.5 124.2,99.9 123.5,92.3 		"/>
		<polygon points="347.2,59.2 378.9,62 378.2,-53.6 347.2,-63.3 		"/>
		<polygon points="427.1,-54.3 458.1,-62.6 404.4,-73.6 404.4,-59.8 		"/>
		<polygon points="471.8,111.6 498.7,101.2 469.8,104 		"/>
		<polygon points="404.4,119.1 442.9,267.1 471.8,273.3 428.5,107.4 		"/>
		<polygon points="428.5,62 464.3,59.2 461.5,-61.2 428.5,-52.9 		"/>
		<polygon points="350,-64.6 379.6,-55 403,-59.8 403,-74.3 402.3,-74.3 		"/>
		<polygon points="347.2,275.4 370.6,266.4 372.7,117.1 345.9,104.7 		"/>
		<polygon points="403,108.1 403,66.1 385.1,64.1 345.2,60.6 345.2,-65.3 403,-76.3 403,-76.3 402.3,-112.1 308,-90.8 306.6,268.5 
			345.2,276.1 345.2,276.1 343.8,102.6 		"/>
		<polygon points="404.4,-111.5 404.4,-75.7 463.6,-63.3 465.6,61.3 427.1,64.1 404.4,66.1 404.4,108.1 429.8,105.4 430.5,106.1 
			473.9,272.6 504.2,264.4 470.5,112.2 470.5,112.2 467.7,101.9 500,99.2 500.7,-87.4 		"/>
		<polygon points="404.4,110.2 350.7,105.4 374.8,115.7 374.1,115.7 400.9,118.4 423.6,108.1 		"/>
		<polygon points="590.2,-68.8 554.4,-64 554.4,-19.9 590.2,-25.4 		"/>
		<polygon points="699,13.8 723.7,20 757.5,15.2 699,2.1 		"/>
		<polygon points="590.9,-24 557.2,-18.5 612.9,-6.1 646,-10.3 		"/>
		<polygon points="615,-4.8 614.3,223.8 650.8,230.6 650.8,-8.9 		"/>
		<path d="M651.5-11c0.7,0,0.7,0.7,0.7,0.7l0,0v240.9h1.4l42.7-10.3l0.7-78.5l0.7-142.5l62.6,14.5l2.1-42l-170-41.3v43.4L651.5-11z"
			/>
	</g>
</g>
</svg>
