<?xml version="1.0" encoding="utf-8"?>
<!-- Generator: Adobe Illustrator 18.0.0, SVG Export Plug-In . SVG Version: 6.00 Build 0)  -->
<!DOCTYPE svg PUBLIC "-//W3C//DTD SVG 1.1//EN" "http://www.w3.org/Graphics/SVG/1.1/DTD/svg11.dtd">
<svg version="1.1" id="Layer_1" xmlns="http://www.w3.org/2000/svg" xmlns:xlink="http://www.w3.org/1999/xlink" x="0px" y="0px"
	 viewBox="0 0 147.9 97.1" enable-background="new 0 0 147.9 97.1" xml:space="preserve">
<g>
	<polygon fill="#FFFFFF" points="0,20.2 74.1,0 147.9,20.6 147.9,76.7 73.8,97.4 0,77 	"/>
	<g>
		<polygon points="143.9,24.1 74.1,5.4 74.1,14.2 138,27.6 138,69.5 74.1,83.1 74.1,92.8 143.9,73.9 		"/>
		<polygon points="73.7,83.2 9.4,69.5 9.4,27.6 73.7,14.1 73.8,14.1 73.8,5.4 4,24.1 4,73.9 73.8,92.8 73.8,83.2 		"/>
		<polygon points="47.4,63.8 47.4,71.7 52.1,73 52.1,64.5 		"/>
		<polygon points="57.3,63.6 52,63 47.9,63.6 52.2,64.2 		"/>
		<polygon points="52.3,73 57.9,71.8 57.9,63.8 52.3,64.5 		"/>
		<polygon points="100.3,63.2 96.3,62.6 90.9,63.2 96,63.9 		"/>
		<polygon points="90.4,63.4 90.4,71.5 95.9,72.6 95.9,64.1 		"/>
		<polygon points="96.2,72.6 100.8,71.4 100.8,63.4 96.2,64.1 		"/>
		<polygon points="123.9,66.5 128.7,65.5 128.7,58.5 123.9,59.1 		"/>
		<polygon points="128.2,58.3 123.6,57.8 120.1,58.3 123.8,58.8 		"/>
		<polygon points="119.7,58.5 119.7,65.4 123.7,66.5 123.7,59.1 		"/>
		<polygon points="24.3,67.1 28.4,66.2 30.6,50.4 27.5,49 		"/>
		<path d="M36.1,27.5l-11.5,2.4l-6.3,35.9l5.7,1.2l3.3-18.4l6.2,0l0,0.1l2,20.2l5.1,1L36.1,27.5L36.1,27.5z M32.9,43.4l-5,0l1.4-9.2
			h2.6l0.5,4.5l0.8,4.5l-0.2,0V43.4z"/>
		<polygon points="41.3,28.1 36.4,27.6 40.9,70.1 46.1,69.2 		"/>
		<polygon points="29.5,34.5 28.2,43.1 31.5,43.1 32.1,39.4 31.6,34.5 		"/>
		<polygon points="28.1,48.9 31,50.2 33.4,50.1 33.3,49 		"/>
		<polygon points="65.8,44.2 70.4,44.6 70.3,27.8 65.8,26.4 		"/>
		<polygon points="77.4,27.7 81.9,26.5 74.1,24.9 74.1,26.9 		"/>
		<polygon points="83.9,51.8 87.8,50.3 83.6,50.7 		"/>
		<polygon points="74.1,52.9 79.7,74.4 83.9,75.3 77.6,51.2 		"/>
		<polygon points="77.6,44.6 82.8,44.2 82.4,26.7 77.6,27.9 		"/>
		<polygon points="66.2,26.2 70.5,27.6 73.9,26.9 73.9,24.8 73.8,24.8 		"/>
		<polygon points="65.8,75.6 69.2,74.3 69.5,52.6 65.6,50.8 		"/>
		<polygon points="73.9,51.3 73.9,45.2 71.3,44.9 65.5,44.4 65.5,26.1 73.9,24.5 73.9,24.5 73.8,19.3 60.1,22.4 59.9,74.6 
			65.5,75.7 65.5,75.7 65.3,50.5 		"/>
		<polygon points="74.1,19.4 74.1,24.6 82.7,26.4 83,44.5 77.4,44.9 74.1,45.2 74.1,51.3 77.8,50.9 77.9,51 84.2,75.2 88.6,74 
			83.7,51.9 83.7,51.9 83.3,50.4 88,50 88.1,22.9 		"/>
		<polygon points="74.1,51.6 66.3,50.9 69.8,52.4 69.7,52.4 73.6,52.8 76.9,51.3 		"/>
		<polygon points="101.1,25.6 95.9,26.3 95.9,32.7 101.1,31.9 		"/>
		<polygon points="116.9,37.6 120.5,38.5 125.4,37.8 116.9,35.9 		"/>
		<polygon points="101.2,32.1 96.3,32.9 104.4,34.7 109.2,34.1 		"/>
		<polygon points="104.7,34.9 104.6,68.1 109.9,69.1 109.9,34.3 		"/>
		<path d="M110,34c0.1,0,0.1,0.1,0.1,0.1h0v35l0.2,0l6.2-1.5l0.1-11.4l0.1-20.7l9.1,2.1l0.3-6.1l-24.7-6l0,6.3L110,34z"/>
	</g>
</g>
</svg>
