<svg xmlns="http://www.w3.org/2000/svg" viewBox="0 0 141 191.07"><defs><style>.a{fill:#0050e6;}.b{fill:#fff;}</style></defs><title>banner1</title><polygon class="a" points="141 191.07 70.5 164.46 0 191.07 0 0 141 0 141 191.07"/><path class="b" d="M40.44,51.61L39.83,54.8l6.07-2.6A14.25,14.25,0,0,1,45,49.67Z"/><line class="b" x1="40.44" y1="51.61" x2="40.44" y2="51.61"/><path class="b" d="M113.8,40h0L89.22,16.51,81,25.12A40.42,40.42,0,0,0,68.1,22.74a32.57,32.57,0,0,0-16.33,4.67L40.24,16.49h0l-4.12.43L27.2,65.63l4.14,0.43h0l18.77-8.21,0.09,0.08c4.47,3.94,11.17,6.45,18.67,6.45a30.45,30.45,0,0,0,14-3.27l7.55,7.25L113.8,44V40h0ZM67.9,23.67a41.06,41.06,0,0,1,12.35,2.19L80.1,26l-3.65,3.8h0a23.89,23.89,0,0,0-7.56-1.2,22.05,22.05,0,0,0-12.19,3.44l0,0L52.81,28.4l-0.34-.32A30.34,30.34,0,0,1,67.9,23.67ZM73,33.37L65.9,40.81l-6.28-5.95A23.31,23.31,0,0,1,68.87,33,24.53,24.53,0,0,1,73,33.37ZM31.53,65L40.09,17.3,52.32,28.89l3.83,3.63,2.93,2.77L66,41.92v3l3,2.84L59.75,52a16.73,16.73,0,0,1-5.32-3.48l-0.09-.1,7.08-3.31L44.78,29.59l-0.33-.33L44,31.41l-3.93,20.5-0.61,3.18,1-.45v0l5.35-2.29a17.13,17.13,0,0,0,3.53,4.87Zm39-15.8,4,3.83a24.17,24.17,0,0,1-5.75.69,23.57,23.57,0,0,1-7-1l-0.87-.3,8.84-4Zm-17.6-2.64-0.14-.19a9.82,9.82,0,0,1-1.25-2.9c0-.1,0-0.21-0.06-0.31a10.42,10.42,0,0,1,1.32-2.85l4.64,4.59ZM44,44.34l0,0.08c0,0.11,0,.22,0,0.3a30.05,30.05,0,0,0,1,5.07h0l-3.82,1.63,3.64-19,1.49,1.48a14.63,14.63,0,0,0-2.52,8.13A13.77,13.77,0,0,0,44,44.34Zm38.35,12.3a26.32,26.32,0,0,1-2.82,1.23,31,31,0,0,1-10.78,1.87A29.73,29.73,0,0,1,54,56.06a21.05,21.05,0,0,1-5.86-4.81A16.58,16.58,0,0,1,46.61,49a14,14,0,0,1-1.78-4.83,13,13,0,0,1-.18-2.13,13.69,13.69,0,0,1,2.2-7.37l3.91,4a9.6,9.6,0,0,0-.12,5.05A10.72,10.72,0,0,0,52,46.86a13,13,0,0,0,1.82,2.27,18.55,18.55,0,0,0,7.61,4.41,24.49,24.49,0,0,0,7.3,1.08,25,25,0,0,0,6-.72,22.7,22.7,0,0,0,3.17-1A17.75,17.75,0,0,0,83.76,49a11.46,11.46,0,0,0,3-5.29,9.84,9.84,0,0,0,.28-2.3,11.81,11.81,0,0,0-2.16-6.52l3.32-3.46a15.84,15.84,0,0,1,4.53,10.65,13.18,13.18,0,0,1-.18,2.13,15.5,15.5,0,0,1-4.81,8.63A22.65,22.65,0,0,1,82.32,56.65Zm1-8.44-5.8-5.65,4.91-5.11a12,12,0,0,1,3.72,5.11,9.41,9.41,0,0,1-.17.94A10.52,10.52,0,0,1,83.29,48.21Zm10.21-4a14,14,0,0,0,.17-2.09,16.75,16.75,0,0,0-4.84-11.32l0.79-.82L101.9,41.72,91.73,52.31a21.83,21.83,0,0,0,1.78-7.83C93.51,44.39,93.5,44.28,93.49,44.16Zm-3.1,20.2-5-4.79a20,20,0,0,0,4.9-4.67l0.05-.08,12.14-12.6,0.36-.39,1.59-1.65L89.62,26l-3.33,3.47-3.67,3.83-2.5,2.61-4.72,4.92h0L75,41.2l1.38,1.32,6.39,6.23A17.14,17.14,0,0,1,77.57,52h0l-4.22-4-4.14-4-2.82-2.67,6.69-7,3.36-3.5,3.65-3.8,9.13-9.5,24,23Z"/><path class="b" d="M60.2,86.72V89H52V87.34L56.81,82a4.67,4.67,0,0,0,.62-0.81,1.71,1.71,0,0,0,.21-0.87V80.21a1.76,1.76,0,0,0-.41-1.28,1.4,1.4,0,0,0-1-.42H56A1.32,1.32,0,0,0,55,79a2.6,2.6,0,0,0-.4,1.65H52V80.32a4.14,4.14,0,0,1,1-3,4.2,4.2,0,0,1,3.09-1,5.22,5.22,0,0,1,1.92.31,3.57,3.57,0,0,1,1.26.81A3,3,0,0,1,60,78.5a3.67,3.67,0,0,1,.22,1.22V80a4.87,4.87,0,0,1-.09,1,3.6,3.6,0,0,1-.26.8,4.14,4.14,0,0,1-.43.72,9.26,9.26,0,0,1-.61.73l-3.18,3.48H60.2Z"/><path class="b" d="M69.78,85.42a4.21,4.21,0,0,1-.26,1.5,3.25,3.25,0,0,1-.77,1.18,3.51,3.51,0,0,1-1.27.78,5.82,5.82,0,0,1-3.57,0,3.51,3.51,0,0,1-1.27-.78,3.24,3.24,0,0,1-.77-1.18,4.21,4.21,0,0,1-.26-1.5V80a4.22,4.22,0,0,1,.26-1.5,3.24,3.24,0,0,1,.77-1.18,3.51,3.51,0,0,1,1.27-.78,5.82,5.82,0,0,1,3.57,0,3.52,3.52,0,0,1,1.27.78,3.25,3.25,0,0,1,.77,1.18,4.22,4.22,0,0,1,.26,1.5v5.41ZM67.22,80a1.66,1.66,0,0,0-.36-1.11,1.4,1.4,0,0,0-1.13-.42H65.67a1.4,1.4,0,0,0-1.13.42A1.66,1.66,0,0,0,64.18,80v5.34a1.66,1.66,0,0,0,.36,1.11,1.4,1.4,0,0,0,1.13.42h0.06a1.4,1.4,0,0,0,1.13-.42,1.66,1.66,0,0,0,.36-1.11V80Z"/><path class="b" d="M71.44,89V86.72h2.73V79.63l-2,1.33L70.95,79.1l3.89-2.64h1.9V86.72h2.73V89h-8Z"/><path class="b" d="M88.46,78.55a6.94,6.94,0,0,0-2.36.35,3.76,3.76,0,0,0-1.64,1.17,4.91,4.91,0,0,0-.83,1.62,3.55,3.55,0,0,1,.88-0.43,3.44,3.44,0,0,1,1.09-.16,3.66,3.66,0,0,1,1.43.27,3.07,3.07,0,0,1,1.1.78,3.49,3.49,0,0,1,.7,1.23A5.13,5.13,0,0,1,89.08,85v0.16a4,4,0,0,1-1,2.92,4.2,4.2,0,0,1-3.13,1.06,4.6,4.6,0,0,1-1.79-.33,3.6,3.6,0,0,1-1.32-.93A4,4,0,0,1,81,86.47a6.07,6.07,0,0,1-.27-1.88V84.38a11.67,11.67,0,0,1,.38-3,8.05,8.05,0,0,1,1.38-2.8,5.12,5.12,0,0,1,1.16-1.14,5.7,5.7,0,0,1,1.4-.72,7.94,7.94,0,0,1,1.62-.38,14.08,14.08,0,0,1,1.81-.11v2.27Zm-3.52,4.78a2,2,0,0,0-.94.24,1.78,1.78,0,0,0-.73.72V84.8a2.4,2.4,0,0,0,.46,1.59,1.42,1.42,0,0,0,1.13.54H85a1.57,1.57,0,0,0,1.11-.42,1.61,1.61,0,0,0,.46-1.24V85a1.61,1.61,0,0,0-.42-1.25A1.55,1.55,0,0,0,85,83.33H84.94Z"/><path class="b" d="M46.24,95.14v8.67a4.55,4.55,0,0,1-.86,3,3.48,3.48,0,0,1-2.85,1.06,4.87,4.87,0,0,1-1.74-.27,2.74,2.74,0,0,1-1.14-.78,3.13,3.13,0,0,1-.62-1.27,7,7,0,0,1-.19-1.72v-0.42h2.45a4.28,4.28,0,0,0,.25,1.66,1.08,1.08,0,0,0,1.88,0,4,4,0,0,0,.24-1.55V95.14h2.59Z"/><path class="b" d="M52.35,107.82a7.34,7.34,0,0,1-2.13-.26,3.22,3.22,0,0,1-1.38-.79,3,3,0,0,1-.74-1.3,6.51,6.51,0,0,1-.22-1.8V95.14h2.59v8.44a2.4,2.4,0,0,0,.39,1.5,1.83,1.83,0,0,0,1.5.5,1.86,1.86,0,0,0,1.5-.5,2.37,2.37,0,0,0,.4-1.5V95.14h2.59v8.52a6.52,6.52,0,0,1-.22,1.8,3,3,0,0,1-.75,1.3,3.29,3.29,0,0,1-1.39.79A7.37,7.37,0,0,1,52.35,107.82Z"/><path class="b" d="M67.64,101.7a10.68,10.68,0,0,1-.3,2.74,4.41,4.41,0,0,1-.94,1.83,3.62,3.62,0,0,1-1.63,1,7.88,7.88,0,0,1-2.39.32H58.55V95.14h3.82a7.89,7.89,0,0,1,2.39.32,3.63,3.63,0,0,1,1.63,1,4.41,4.41,0,0,1,.94,1.83,10.69,10.69,0,0,1,.3,2.74v0.64Zm-5.41,3.68a3.46,3.46,0,0,0,1.34-.22,1.94,1.94,0,0,0,.85-0.68,2.89,2.89,0,0,0,.45-1.14A9.07,9.07,0,0,0,65,101.7v-0.64a9.11,9.11,0,0,0-.13-1.62,2.9,2.9,0,0,0-.45-1.15,1.94,1.94,0,0,0-.85-0.68,3.46,3.46,0,0,0-1.34-.22H61.14v8h1.09Z"/><path class="b" d="M73.83,107.82a6.23,6.23,0,0,1-2.21-.35,3.59,3.59,0,0,1-1.54-1.1,4.87,4.87,0,0,1-.9-1.9,11.35,11.35,0,0,1-.3-2.77v-0.64a11.35,11.35,0,0,1,.3-2.77,5,5,0,0,1,.89-1.9,3.5,3.5,0,0,1,1.49-1.1,5.76,5.76,0,0,1,2.11-.35,7.25,7.25,0,0,1,2,.24,3.46,3.46,0,0,1,1.42.77,3.25,3.25,0,0,1,.86,1.36,6.14,6.14,0,0,1,.29,2v0.58H75.62a7.34,7.34,0,0,0-.08-1.14,2.34,2.34,0,0,0-.29-0.85,1.42,1.42,0,0,0-.55-0.53,1.88,1.88,0,0,0-.89-0.18H73.67a2,2,0,0,0-1.06.26,1.75,1.75,0,0,0-.66.75,4,4,0,0,0-.34,1.22,12.76,12.76,0,0,0-.1,1.66v0.64a12.7,12.7,0,0,0,.1,1.66,3.85,3.85,0,0,0,.34,1.22,1.76,1.76,0,0,0,.68.75,2.17,2.17,0,0,0,1.12.26h0.14a3.22,3.22,0,0,0,1-.14,2.53,2.53,0,0,0,.71-0.34v-2H74v-2.24h4.24v5.5a7.88,7.88,0,0,1-.77.55,5.19,5.19,0,0,1-.94.46,6.76,6.76,0,0,1-1.18.32A8.21,8.21,0,0,1,73.83,107.82Z"/><path class="b" d="M87.55,95.14v2.24h-5v2.75h4.24v2.24H82.51v3h5v2.24H79.92V95.14h7.63Z"/><path class="b" d="M92.83,102.4A9.76,9.76,0,0,1,91,102a3.76,3.76,0,0,1-1.25-.68,2.58,2.58,0,0,1-.74-1,4,4,0,0,1-.24-1.46V98.64A3.44,3.44,0,0,1,90,95.94a4.76,4.76,0,0,1,3.27-1,4.62,4.62,0,0,1,3.36,1,4.39,4.39,0,0,1,1.06,3.24v0.34H95a3.17,3.17,0,0,0-.41-1.81,1.6,1.6,0,0,0-1.4-.58H93.1a1.77,1.77,0,0,0-1.22.38,1.27,1.27,0,0,0-.43,1v0.08a1.89,1.89,0,0,0,.09.6,1,1,0,0,0,.33.46,2,2,0,0,0,.66.34,6.85,6.85,0,0,0,1.11.23,10.21,10.21,0,0,1,1.79.4,3.94,3.94,0,0,1,1.28.68,2.64,2.64,0,0,1,.77,1,3.91,3.91,0,0,1,.26,1.49V104a3.49,3.49,0,0,1-1.15,2.8,5,5,0,0,1-3.36,1,4.85,4.85,0,0,1-3.35-1,4.22,4.22,0,0,1-1.14-3.29v-0.14h2.59a2.53,2.53,0,0,0,.46,1.7,1.75,1.75,0,0,0,1.38.52H93.3a1.88,1.88,0,0,0,1.35-.42,1.4,1.4,0,0,0,.44-1V104a1.62,1.62,0,0,0-.1-0.6,1.1,1.1,0,0,0-.36-0.46,2.18,2.18,0,0,0-.7-0.34A7.43,7.43,0,0,0,92.83,102.4Z"/><path class="b" d="M101.73,97.25q0,2.85-2.73,2.85V98.83a1.28,1.28,0,0,0,1.42-1H99.08V95.14h2.65v2.11Z"/><path class="b" d="M49.94,113.77l3.12,12.51H50.29l-0.61-2.69H46.63L46,126.27H43.26l3.12-12.51h3.57Zm-2.81,7.58h2l-1-4.59Z"/><path class="b" d="M60.11,116.76l-1.81,9.55H55L52.93,113.8h2.7l1.2,9,1.68-9h3.21l1.68,9,1.2-9h2.7L65.25,126.3H61.92Z"/><path class="b" d="M73.87,113.77L77,126.27H74.22l-0.61-2.69H70.56L70,126.27H67.18l3.12-12.51h3.57Zm-2.81,7.58h2l-1-4.59Z"/><path class="b" d="M80.7,126.27H78.1V113.8H82.2a8.81,8.81,0,0,1,1.54.14,3.69,3.69,0,0,1,1.39.54,3,3,0,0,1,1,1.16,4.34,4.34,0,0,1,.39,2V118a5.23,5.23,0,0,1-.15,1.33,3.53,3.53,0,0,1-.42,1,2.71,2.71,0,0,1-.62.7,3.43,3.43,0,0,1-.78.46l2,4.85h-2.8L82,121.79H80.7v4.48Zm1.62-6.72a2.54,2.54,0,0,0,.54-0.06,1.28,1.28,0,0,0,.52-0.25,1.38,1.38,0,0,0,.38-0.51,2,2,0,0,0,.15-0.86v-0.16a2.05,2.05,0,0,0-.15-0.86,1.38,1.38,0,0,0-.38-0.51,1.26,1.26,0,0,0-.52-0.25,2.5,2.5,0,0,0-.54-0.06H80.7v3.52h1.62Z"/><path class="b" d="M97.15,120.35a10.69,10.69,0,0,1-.3,2.74,4.41,4.41,0,0,1-.94,1.83,3.62,3.62,0,0,1-1.63,1,7.88,7.88,0,0,1-2.39.32H88.07V113.8h3.82a7.89,7.89,0,0,1,2.39.32,3.63,3.63,0,0,1,1.63,1,4.41,4.41,0,0,1,.94,1.83,10.69,10.69,0,0,1,.3,2.74v0.64ZM91.75,124a3.46,3.46,0,0,0,1.34-.22,1.93,1.93,0,0,0,.85-0.68,2.89,2.89,0,0,0,.45-1.14,9.08,9.08,0,0,0,.13-1.63v-0.64a9.11,9.11,0,0,0-.13-1.62,2.9,2.9,0,0,0-.45-1.15,1.94,1.94,0,0,0-.85-0.68,3.47,3.47,0,0,0-1.34-.22H90.66v8h1.09Z"/><path class="b" d="M28.51,139a13.88,13.88,0,0,0,.09,1.66,4,4,0,0,0,.32,1.22,1.73,1.73,0,0,0,.63.75,1.87,1.87,0,0,0,1,.26h0.14a1.47,1.47,0,0,0,1.34-.61,2.94,2.94,0,0,0,.39-1.62H35v0.14a4.27,4.27,0,0,1-1.12,3.31,4.86,4.86,0,0,1-3.34,1,5.7,5.7,0,0,1-2.1-.35,3.4,3.4,0,0,1-1.46-1.1,4.88,4.88,0,0,1-.85-1.9,12.29,12.29,0,0,1-.27-2.77v-0.64a12.29,12.29,0,0,1,.27-2.77,4.89,4.89,0,0,1,.85-1.9,3.4,3.4,0,0,1,1.46-1.1,5.7,5.7,0,0,1,2.1-.35,4.83,4.83,0,0,1,3.34,1A4.34,4.34,0,0,1,35,136.61v0.58H32.45a7.34,7.34,0,0,0-.08-1.14,2.56,2.56,0,0,0-.27-0.85,1.32,1.32,0,0,0-.53-0.53,1.75,1.75,0,0,0-.85-0.18H30.58a1.87,1.87,0,0,0-1,.26,1.74,1.74,0,0,0-.63.75,4,4,0,0,0-.32,1.22,14,14,0,0,0-.09,1.66V139Z"/><path class="b" d="M44.19,132.46v2.24h-5v2.75h4.24v2.24H39.15v3h5v2.24H36.56V132.46h7.63Z"/><path class="b" d="M54.85,144.93H52.12l-4-7.74,0.08,2.51v5.23H45.72V132.46h2.73l4,7.74-0.08-2.51v-5.23h2.46v12.47Z"/><path class="b" d="M61.49,144.93H58.9V134.69H56v-2.24h8.36v2.24H61.49v10.24Z"/><path class="b" d="M68.14,144.93H65.55V132.46h4.09a8.81,8.81,0,0,1,1.54.14,3.68,3.68,0,0,1,1.39.54,3,3,0,0,1,1,1.16,4.34,4.34,0,0,1,.39,2v0.32a5.23,5.23,0,0,1-.15,1.33,3.53,3.53,0,0,1-.42,1,2.71,2.71,0,0,1-.62.7,3.43,3.43,0,0,1-.78.46l2,4.85h-2.8l-1.71-4.48H68.14v4.48Zm1.62-6.72a2.54,2.54,0,0,0,.54-0.06,1.28,1.28,0,0,0,.52-0.25,1.38,1.38,0,0,0,.38-0.51,2,2,0,0,0,.15-0.86v-0.16a2.05,2.05,0,0,0-.15-0.86,1.38,1.38,0,0,0-.38-0.51,1.26,1.26,0,0,0-.52-0.25,2.5,2.5,0,0,0-.54-0.06H68.14v3.52h1.62Z"/><path class="b" d="M81.37,132.42l3.12,12.51H81.72l-0.61-2.69H78.06l-0.59,2.69H74.68l3.12-12.51h3.57ZM78.55,140h2l-1-4.59Z"/><path class="b" d="M85.6,144.93V132.46H88.2v10.23H92.8v2.24H85.6Z"/><path class="b" d="M99.31,145l-3.12-12.51H99l2.13,9.52,2.13-9.52H106L102.88,145H99.31Z"/><path class="b" d="M112.39,132.42l3.12,12.51h-2.77l-0.61-2.69h-3.05l-0.59,2.69h-2.78l3.12-12.51h3.57ZM109.58,140h2l-1-4.59Z"/></svg>