<svg id="Layer_1" data-name="Layer 1" xmlns="http://www.w3.org/2000/svg" viewBox="0 0 141 191.07"><defs><style>.cls-1{fill:#0050e6;}.cls-2{fill:#fff;}</style></defs><title>banner</title><polygon class="cls-1" points="141 191.07 70.5 164.46 0 191.07 0 0 141 0 141 191.07"/><path class="cls-2" d="M40.44,51.61L39.83,54.8l6.07-2.6A14.25,14.25,0,0,1,45,49.67Z"/><line class="cls-2" x1="40.44" y1="51.61" x2="40.44" y2="51.61"/><path class="cls-2" d="M113.8,40h0L89.22,16.51,81,25.12A40.42,40.42,0,0,0,68.1,22.74a32.57,32.57,0,0,0-16.33,4.67L40.24,16.49h0l-4.12.43L27.2,65.63l4.14,0.43h0l18.77-8.21,0.09,0.08c4.47,3.94,11.17,6.45,18.67,6.45a30.45,30.45,0,0,0,14-3.27l7.55,7.25L113.8,44V40h0ZM67.9,23.67a41.06,41.06,0,0,1,12.35,2.19L80.1,26l-3.65,3.8h0a23.89,23.89,0,0,0-7.56-1.2,22.05,22.05,0,0,0-12.19,3.44l0,0L52.81,28.4l-0.34-.32A30.34,30.34,0,0,1,67.9,23.67ZM73,33.37L65.9,40.81l-6.28-5.95A23.31,23.31,0,0,1,68.87,33,24.53,24.53,0,0,1,73,33.37ZM31.53,65L40.09,17.3,52.32,28.89l3.83,3.63,2.93,2.77L66,41.92v3l3,2.84L59.75,52a16.73,16.73,0,0,1-5.32-3.48l-0.09-.1,7.08-3.31L44.78,29.59l-0.33-.33L44,31.41l-3.93,20.5-0.61,3.18,1-.45v0l5.35-2.29a17.13,17.13,0,0,0,3.53,4.87Zm39-15.8,4,3.83a24.17,24.17,0,0,1-5.75.69,23.57,23.57,0,0,1-7-1l-0.87-.3,8.84-4Zm-17.6-2.64-0.14-.19a9.82,9.82,0,0,1-1.25-2.9c0-.1,0-0.21-0.06-0.31a10.42,10.42,0,0,1,1.32-2.85l4.64,4.59ZM44,44.34l0,0.08c0,0.11,0,.22,0,0.3a30.05,30.05,0,0,0,1,5.07h0l-3.82,1.63,3.64-19,1.49,1.48a14.63,14.63,0,0,0-2.52,8.13A13.77,13.77,0,0,0,44,44.34Zm38.35,12.3a26.32,26.32,0,0,1-2.82,1.23,31,31,0,0,1-10.78,1.87A29.73,29.73,0,0,1,54,56.06a21.05,21.05,0,0,1-5.86-4.81A16.58,16.58,0,0,1,46.61,49a14,14,0,0,1-1.78-4.83,13,13,0,0,1-.18-2.13,13.69,13.69,0,0,1,2.2-7.37l3.91,4a9.6,9.6,0,0,0-.12,5.05A10.72,10.72,0,0,0,52,46.86a13,13,0,0,0,1.82,2.27,18.55,18.55,0,0,0,7.61,4.41,24.49,24.49,0,0,0,7.3,1.08,25,25,0,0,0,6-.72,22.7,22.7,0,0,0,3.17-1A17.75,17.75,0,0,0,83.76,49a11.46,11.46,0,0,0,3-5.29,9.84,9.84,0,0,0,.28-2.3,11.81,11.81,0,0,0-2.16-6.52l3.32-3.46a15.84,15.84,0,0,1,4.53,10.65,13.18,13.18,0,0,1-.18,2.13,15.5,15.5,0,0,1-4.81,8.63A22.65,22.65,0,0,1,82.32,56.65Zm1-8.44-5.8-5.65,4.91-5.11a12,12,0,0,1,3.72,5.11,9.41,9.41,0,0,1-.17.94A10.52,10.52,0,0,1,83.29,48.21Zm10.21-4a14,14,0,0,0,.17-2.09,16.75,16.75,0,0,0-4.84-11.32l0.79-.82L101.9,41.72,91.73,52.31a21.83,21.83,0,0,0,1.78-7.83C93.51,44.39,93.5,44.28,93.49,44.16Zm-3.1,20.2-5-4.79a20,20,0,0,0,4.9-4.67l0.05-.08,12.14-12.6,0.36-.39,1.59-1.65L89.62,26l-3.33,3.47-3.67,3.83-2.5,2.61-4.72,4.92h0L75,41.2l1.38,1.32,6.39,6.23A17.14,17.14,0,0,1,77.57,52h0l-4.22-4-4.14-4-2.82-2.67,6.69-7,3.36-3.5,3.65-3.8,9.13-9.5,24,23Z"/></svg>